<svg version="1.1" viewBox="0.0 0.0 960.0 720.0" fill="none" stroke="none" stroke-linecap="square" stroke-miterlimit="10" xmlns:xlink="http://www.w3.org/1999/xlink" xmlns="http://www.w3.org/2000/svg"><clipPath id="p.0"><path d="m0 0l960.0 0l0 720.0l-960.0 0l0 -720.0z" clip-rule="nonzero"/></clipPath><g clip-path="url(#p.0)"><path fill="#000000" fill-opacity="0.0" d="m0 0l960.0 0l0 720.0l-960.0 0z" fill-rule="evenodd"/><path fill="#ffffff" d="m342.65878 270.63516l0 0c0 -54.645737 44.299133 -98.94487 98.944885 -98.94487l0 0c26.241821 0 51.408844 10.424515 69.9646 28.980286c18.555756 18.555756 28.980316 43.72278 28.980316 69.964584l0 0c0 54.645752 -44.299164 98.944885 -98.944916 98.944885l0 0c-54.645752 0 -98.944885 -44.299133 -98.944885 -98.944885z" fill-rule="evenodd"/><path fill="#ffffff" d="m40.490814 391.06036l0 0c0 -54.645752 44.299133 -98.944885 98.944885 -98.944885l0 0c26.241806 0 51.40883 10.42453 69.9646 28.980286c18.555756 18.555786 28.980286 43.72278 28.980286 69.9646l0 0c0 54.645752 -44.299133 98.944885 -98.944885 98.944885l0 0c-54.645752 0 -98.944885 -44.299133 -98.944885 -98.944885z" fill-rule="evenodd"/><path fill="#000000" fill-opacity="0.0" d="m371.08398 325.76117l70.519684 -120.40947l70.519684 120.40947z" fill-rule="evenodd"/><path stroke="#000000" stroke-width="8.0" stroke-linejoin="round" stroke-linecap="butt" d="m371.08398 325.76117l70.519684 -120.40947l70.519684 120.40947z" fill-rule="evenodd"/><path fill="#000000" fill-opacity="0.0" d="m70.18372 438.5958l70.51969 -127.24408l70.519684 127.24408z" fill-rule="evenodd"/><path stroke="#000000" stroke-width="8.0" stroke-linejoin="round" stroke-linecap="butt" d="m70.18372 438.5958l70.51969 -127.24408l70.519684 127.24408z" fill-rule="evenodd"/><path fill="#000000" fill-opacity="0.0" d="m124.85313 391.0605l0 0c0 -8.0538025 6.5288925 -14.582672 14.58268 -14.582672l0 0c3.867569 0 7.576721 1.536377 10.311508 4.2711487c2.734787 2.7348022 4.271164 6.443939 4.271164 10.311523l0 0c0 8.053772 -6.528885 14.582672 -14.582672 14.582672l0 0c-8.053787 0 -14.58268 -6.5289 -14.58268 -14.582672z" fill-rule="evenodd"/><path stroke="#000000" stroke-width="8.0" stroke-linejoin="round" stroke-linecap="butt" d="m124.85313 391.0605l0 0c0 -8.0538025 6.5288925 -14.582672 14.58268 -14.582672l0 0c3.867569 0 7.576721 1.536377 10.311508 4.2711487c2.734787 2.7348022 4.271164 6.443939 4.271164 10.311523l0 0c0 8.053772 -6.528885 14.582672 -14.582672 14.582672l0 0c-8.053787 0 -14.58268 -6.5289 -14.58268 -14.582672z" fill-rule="evenodd"/><path fill="#000000" fill-opacity="0.0" d="m427.02112 263.02133l0 0c0 -8.053787 6.5288696 -14.582672 14.582672 -14.582672l0 0c3.8675537 0 7.576721 1.536377 10.311493 4.271164c2.7348022 2.734787 4.271179 6.4439545 4.271179 10.311508l0 0c0 8.0538025 -6.5289 14.582672 -14.582672 14.582672l0 0c-8.0538025 0 -14.582672 -6.5288696 -14.582672 -14.582672z" fill-rule="evenodd"/><path stroke="#000000" stroke-width="8.0" stroke-linejoin="round" stroke-linecap="butt" d="m427.02112 263.02133l0 0c0 -8.053787 6.5288696 -14.582672 14.582672 -14.582672l0 0c3.8675537 0 7.576721 1.536377 10.311493 4.271164c2.7348022 2.734787 4.271179 6.4439545 4.271179 10.311508l0 0c0 8.0538025 -6.5289 14.582672 -14.582672 14.582672l0 0c-8.0538025 0 -14.582672 -6.5288696 -14.582672 -14.582672z" fill-rule="evenodd"/><path fill="#000000" fill-opacity="0.0" d="m109.37294 435.70605l0 0c0 -16.603333 13.459656 -30.062988 30.062988 -30.062988l0 0c7.9732056 0 15.619843 3.167328 21.257751 8.805237c5.6378937 5.637909 8.805237 13.284546 8.805237 21.257751l0 0c0 16.603333 -13.459656 30.062988 -30.062988 30.062988l0 0c-16.603333 0 -30.062988 -13.459656 -30.062988 -30.062988z" fill-rule="evenodd"/><path stroke="#000000" stroke-width="8.0" stroke-linejoin="round" stroke-linecap="butt" d="m109.37294 435.70605l0 0c0 -16.603333 13.459656 -30.062988 30.062988 -30.062988l0 0c7.9732056 0 15.619843 3.167328 21.257751 8.805237c5.6378937 5.637909 8.805237 13.284546 8.805237 21.257751l0 0c0 16.603333 -13.459656 30.062988 -30.062988 30.062988l0 0c-16.603333 0 -30.062988 -13.459656 -30.062988 -30.062988z" fill-rule="evenodd"/><path fill="#000000" fill-opacity="0.0" d="m139.4358 447.4647l0 40.566925" fill-rule="evenodd"/><path stroke="#000000" stroke-width="8.0" stroke-linejoin="round" stroke-linecap="butt" d="m139.4358 447.4647l0 40.566925" fill-rule="evenodd"/><path fill="#000000" fill-opacity="0.0" d="m458.87238 325.77362l46.897644 -83.65355" fill-rule="evenodd"/><path stroke="#000000" stroke-width="8.0" stroke-linejoin="round" stroke-linecap="butt" d="m458.87238 325.77362l46.897644 -83.65355" fill-rule="evenodd"/><path fill="#000000" fill-opacity="0.0" d="m518.4514 299.15485l-36.75589 -57.039368" fill-rule="evenodd"/><path stroke="#000000" stroke-width="8.0" stroke-linejoin="round" stroke-linecap="butt" d="m518.4514 299.15485l-36.75589 -57.039368" fill-rule="evenodd"/><path fill="#000000" fill-opacity="0.0" d="m167.8377 438.59457l46.897644 -83.653534" fill-rule="evenodd"/><path stroke="#000000" stroke-width="8.0" stroke-linejoin="round" stroke-linecap="butt" d="m167.8377 438.59457l46.897644 -83.653534" fill-rule="evenodd"/><path fill="#000000" fill-opacity="0.0" d="m227.41676 411.97583l-36.755905 -57.039368" fill-rule="evenodd"/><path stroke="#000000" stroke-width="8.0" stroke-linejoin="round" stroke-linecap="butt" d="m227.41676 411.97583l-36.755905 -57.039368" fill-rule="evenodd"/></g></svg>